# Blender v2.79 (sub 0) OBJ File: 'cube.blend'
# www.blender.org
o Cube
v 0.500000 -0.425000 -0.425000
v 0.425000 -0.500000 -0.425000
v 0.425000 -0.425000 -0.500000
v 0.489980 -0.462451 -0.425000
v 0.489980 -0.425000 -0.462451
v 0.480247 -0.460866 -0.460866
v 0.425000 -0.489980 -0.462451
v 0.462451 -0.489980 -0.425000
v 0.460866 -0.480247 -0.460866
v 0.462451 -0.425000 -0.489980
v 0.425000 -0.462451 -0.489980
v 0.460866 -0.460866 -0.480247
v 0.500000 -0.425000 0.425000
v 0.425000 -0.425000 0.500000
v 0.425000 -0.500000 0.425000
v 0.489980 -0.425000 0.462451
v 0.489980 -0.462451 0.425000
v 0.480247 -0.460866 0.460866
v 0.425000 -0.462451 0.489980
v 0.462451 -0.425000 0.489980
v 0.460866 -0.460866 0.480248
v 0.462451 -0.489980 0.425000
v 0.425000 -0.489980 0.462451
v 0.460866 -0.480247 0.460866
v -0.425000 -0.425000 0.500000
v -0.500000 -0.425000 0.425000
v -0.425000 -0.500000 0.425000
v -0.462451 -0.425000 0.489980
v -0.425000 -0.462451 0.489980
v -0.460866 -0.460866 0.480247
v -0.489980 -0.462451 0.425000
v -0.489980 -0.425000 0.462451
v -0.480247 -0.460866 0.460866
v -0.425000 -0.489980 0.462451
v -0.462451 -0.489980 0.425000
v -0.460866 -0.480247 0.460866
v -0.425000 -0.425000 -0.500000
v -0.425000 -0.500000 -0.425000
v -0.500000 -0.425000 -0.425000
v -0.425000 -0.462451 -0.489980
v -0.462451 -0.425000 -0.489980
v -0.460866 -0.460866 -0.480248
v -0.462451 -0.489980 -0.425000
v -0.425000 -0.489980 -0.462451
v -0.460866 -0.480247 -0.460866
v -0.489980 -0.425000 -0.462451
v -0.489980 -0.462451 -0.425000
v -0.480247 -0.460866 -0.460866
v 0.425000 0.425000 -0.500000
v 0.425000 0.500000 -0.425000
v 0.500000 0.425000 -0.425000
v 0.425000 0.462451 -0.489980
v 0.462451 0.425000 -0.489980
v 0.460866 0.460866 -0.480247
v 0.462451 0.489980 -0.425000
v 0.425000 0.489980 -0.462450
v 0.460866 0.480247 -0.460865
v 0.489980 0.425000 -0.462450
v 0.489980 0.462451 -0.425000
v 0.480248 0.460866 -0.460865
v 0.425000 0.425000 0.500000
v 0.500000 0.425000 0.425000
v 0.425000 0.500000 0.425000
v 0.462451 0.425000 0.489981
v 0.425000 0.462451 0.489981
v 0.460866 0.460866 0.480248
v 0.489980 0.462451 0.425000
v 0.489980 0.425000 0.462451
v 0.480247 0.460866 0.460866
v 0.425000 0.489980 0.462451
v 0.462451 0.489980 0.425000
v 0.460866 0.480247 0.460866
v -0.500000 0.425000 0.425000
v -0.425000 0.425000 0.500000
v -0.425000 0.500000 0.425000
v -0.489981 0.425000 0.462451
v -0.489980 0.462451 0.425000
v -0.480248 0.460866 0.460866
v -0.425000 0.462451 0.489980
v -0.462451 0.425000 0.489980
v -0.460866 0.460866 0.480247
v -0.462451 0.489980 0.425000
v -0.425000 0.489980 0.462451
v -0.460866 0.480247 0.460866
v -0.500000 0.425000 -0.425000
v -0.425000 0.500000 -0.425000
v -0.425000 0.425000 -0.500000
v -0.489980 0.462451 -0.425000
v -0.489980 0.425000 -0.462451
v -0.480247 0.460866 -0.460866
v -0.425000 0.489980 -0.462451
v -0.462451 0.489980 -0.425000
v -0.460866 0.480247 -0.460866
v -0.462451 0.425000 -0.489980
v -0.425000 0.462451 -0.489980
v -0.460866 0.460866 -0.480247
vt 0.925000 0.075000
vt 0.075000 0.925000
vt 0.075000 0.075000
vt 0.075000 0.075000
vt 0.925000 0.925000
vt 0.075000 0.925000
vt 0.925000 0.075000
vt 0.075000 0.925000
vt 0.075000 0.075000
vt 0.925000 0.075000
vt 0.075000 0.925000
vt 0.075000 0.075000
vt 0.925000 0.075000
vt 0.075000 0.925000
vt 0.075000 0.075000
vt 0.037549 0.075000
vt 0.075000 0.037549
vt 0.075000 0.075000
vt 0.000000 0.039134
vt 0.039134 0.039134
vt 0.037549 0.075000
vt 0.075000 0.037549
vt 0.000000 0.039134
vt 0.039134 0.039134
vt 0.925000 0.037549
vt 0.962451 0.075000
vt 0.960866 0.000000
vt 0.960866 0.039134
vt 0.039134 0.000000
vt 0.075000 0.962451
vt 0.037549 0.925000
vt 0.075000 0.925000
vt 0.039134 1.000000
vt 0.039134 0.960866
vt 0.037549 0.075000
vt 0.075000 0.037549
vt 0.000000 0.075000
vt 0.039134 0.039134
vt 0.925000 0.037549
vt 0.962451 0.075000
vt 0.925000 0.075000
vt 0.925000 0.000000
vt 0.960866 0.039134
vt 0.000000 0.960866
vt 0.075000 0.962451
vt 0.037549 0.925000
vt 0.039134 1.000000
vt 0.039134 0.960866
vt 0.037549 0.075000
vt 0.075000 0.037549
vt 0.000000 0.039134
vt 0.039134 0.039134
vt 0.962451 0.925000
vt 0.925000 0.962451
vt 1.000000 0.960866
vt 0.960866 0.960866
vt 0.000000 0.960866
vt 0.962451 0.925000
vt 0.925000 0.962451
vt 0.925000 0.925000
vt 1.000000 0.960866
vt 0.960866 0.960866
vt 0.075000 0.962451
vt 0.037549 0.925000
vt 0.039134 1.000000
vt 0.039134 0.960866
vt 0.075000 0.962451
vt 0.037549 0.925000
vt 0.039134 1.000000
vt 0.039134 0.960866
vt 0.960866 1.000000
vt 0.037549 0.075000
vt 0.075000 0.037549
vt 0.000000 0.075000
vt 0.039134 0.039134
vt 0.037549 0.075000
vt 0.075000 0.037549
vt 0.000000 0.039134
vt 0.039134 0.039134
vt 0.925000 0.037549
vt 0.962451 0.075000
vt 0.925000 0.075000
vt 0.960866 0.000000
vt 0.960866 0.039134
vt 0.000000 0.039134
vt 0.039134 0.000000
vt 0.925000 0.037549
vt 0.962451 0.075000
vt 0.960866 0.000000
vt 0.960866 0.039134
vt 0.962451 0.925000
vt 0.925000 0.962451
vt 0.925000 0.925000
vt 1.000000 0.925000
vt 0.960866 0.960866
vt 0.075000 0.962451
vt 0.037549 0.925000
vt 0.075000 1.000000
vt 0.039134 0.960866
vt 1.000000 0.039134
vt 0.925000 0.037549
vt 0.962451 0.075000
vt 0.960866 0.000000
vt 0.960866 0.039134
vt 0.962451 0.925000
vt 0.925000 0.962451
vt 0.925000 0.925000
vt 1.000000 0.925000
vt 0.960866 0.960866
vt 0.962451 0.925000
vt 0.925000 0.962451
vt 0.925000 0.925000
vt 1.000000 0.960866
vt 0.960866 0.960866
vt 1.000000 0.039134
vt 0.962451 0.925000
vt 0.925000 0.962451
vt 0.925000 0.925000
vt 1.000000 0.925000
vt 0.960866 0.960866
vt 0.925000 0.037549
vt 0.962451 0.075000
vt 0.960866 0.000000
vt 0.960866 0.039134
vt 0.075000 0.962451
vt 0.037549 0.925000
vt 0.039134 1.000000
vt 0.039134 0.960866
vt 1.000000 0.960866
vt 0.960866 1.000000
vt 0.000000 0.075000
vt 0.000000 0.075000
vt 0.925000 0.000000
vt 0.075000 1.000000
vt 0.000000 0.075000
vt 0.075000 1.000000
vt 0.075000 1.000000
vt 0.000000 0.075000
vt 1.000000 0.925000
vt 0.000000 0.039134
vt 0.960866 0.000000
vt 1.000000 0.925000
vt 1.000000 0.925000
vt 0.075000 1.000000
vt 0.925000 0.000000
vt 0.925000 0.000000
vt 1.000000 0.960866
vt 0.039134 1.000000
vt 0.925000 0.000000
vt 1.000000 0.960866
vt 0.925000 0.000000
vt 0.075000 1.000000
vt 0.000000 0.925000
vt 0.000000 0.925000
vt 0.075000 0.000000
vt 0.000000 0.925000
vt 0.925000 1.000000
vt 0.000000 0.925000
vt 0.925000 1.000000
vt 0.925000 1.000000
vt 0.000000 0.925000
vt 0.000000 0.925000
vt 0.925000 1.000000
vt 1.000000 0.075000
vn 0.1280 -0.1280 -0.9835
vn -0.1280 0.1280 -0.9835
vn 0.1280 0.1280 -0.9835
vn 0.1280 -0.9835 -0.1280
vn -0.1280 -0.9835 0.1280
vn -0.1280 -0.9835 -0.1280
vn -0.9835 0.1280 0.1280
vn -0.9835 -0.1280 -0.1280
vn -0.9835 -0.1280 0.1280
vn -0.1280 0.9835 -0.1280
vn 0.1280 0.9835 0.1280
vn 0.1280 0.9835 -0.1280
vn 0.1280 0.1280 0.9835
vn -0.1280 -0.1280 0.9835
vn 0.1280 -0.1280 0.9835
vn 0.8623 -0.4916 -0.1216
vn 0.8623 -0.1216 -0.4916
vn 0.9835 -0.1280 -0.1280
vn 0.4488 -0.7727 -0.4488
vn 0.7727 -0.4488 -0.4488
vn 0.1216 -0.8623 -0.4916
vn 0.4916 -0.8623 -0.1216
vn 0.4488 -0.4488 -0.7727
vn 0.4916 -0.1216 -0.8623
vn 0.1216 -0.4916 -0.8623
vn 0.8623 -0.1216 0.4916
vn 0.8623 -0.4916 0.1216
vn 0.9835 -0.1280 0.1280
vn 0.4488 -0.4488 0.7727
vn 0.7727 -0.4488 0.4488
vn 0.1216 -0.4916 0.8623
vn 0.4916 -0.1216 0.8623
vn 0.1216 -0.8623 0.4916
vn 0.4916 -0.8623 0.1216
vn 0.1280 -0.9835 0.1280
vn 0.4488 -0.7727 0.4488
vn -0.4916 -0.1216 0.8623
vn -0.1216 -0.4916 0.8623
vn -0.7727 -0.4488 0.4488
vn -0.4488 -0.4488 0.7727
vn -0.8623 -0.4916 0.1216
vn -0.8623 -0.1216 0.4916
vn -0.4488 -0.7727 0.4488
vn -0.1216 -0.8623 0.4916
vn -0.4916 -0.8623 0.1216
vn -0.1216 -0.4916 -0.8623
vn -0.4916 -0.1216 -0.8623
vn -0.1280 -0.1280 -0.9835
vn -0.4488 -0.7727 -0.4488
vn -0.4488 -0.4488 -0.7727
vn -0.4916 -0.8623 -0.1216
vn -0.1216 -0.8623 -0.4916
vn -0.7727 -0.4488 -0.4488
vn -0.8623 -0.1216 -0.4916
vn -0.8623 -0.4916 -0.1216
vn 0.1216 0.4916 -0.8623
vn 0.4916 0.1216 -0.8623
vn 0.1216 0.8623 -0.4916
vn 0.4488 0.4488 -0.7727
vn 0.4916 0.8623 -0.1216
vn 0.7727 0.4488 -0.4488
vn 0.4488 0.7727 -0.4488
vn 0.8623 0.1216 -0.4916
vn 0.8623 0.4916 -0.1216
vn 0.9835 0.1280 -0.1280
vn 0.4916 0.1216 0.8623
vn 0.1216 0.4916 0.8623
vn 0.7727 0.4488 0.4488
vn 0.4488 0.4488 0.7727
vn 0.8623 0.4916 0.1216
vn 0.8623 0.1216 0.4916
vn 0.9835 0.1280 0.1280
vn 0.4916 0.8623 0.1216
vn 0.1216 0.8623 0.4916
vn 0.4488 0.7727 0.4488
vn -0.8623 0.1216 0.4916
vn -0.8623 0.4916 0.1216
vn -0.4488 0.4488 0.7727
vn -0.7727 0.4488 0.4488
vn -0.1216 0.4916 0.8623
vn -0.4916 0.1216 0.8623
vn -0.1280 0.1280 0.9835
vn -0.1216 0.8623 0.4916
vn -0.4916 0.8623 0.1216
vn -0.1280 0.9835 0.1280
vn -0.4488 0.7727 0.4488
vn -0.8623 0.4916 -0.1216
vn -0.8623 0.1216 -0.4916
vn -0.9835 0.1280 -0.1280
vn -0.4916 0.8623 -0.1216
vn -0.7727 0.4488 -0.4488
vn -0.1216 0.8623 -0.4916
vn -0.4488 0.4488 -0.7727
vn -0.4488 0.7727 -0.4488
vn -0.4916 0.1216 -0.8623
vn -0.1216 0.4916 -0.8623
s 1
f 3/1/1 87/2/2 49/3/3
f 2/4/4 27/5/5 38/6/6
f 73/7/7 39/8/8 26/9/9
f 86/10/10 63/11/11 50/12/12
f 61/13/13 25/14/14 14/15/15
f 4/16/16 5/17/17 1/18/18
f 4/16/16 9/19/19 6/20/20
f 7/21/21 8/22/22 2/4/4
f 7/21/21 12/23/23 9/24/19
f 10/25/24 11/26/25 3/1/1
f 10/25/24 6/27/20 12/28/23
f 6/20/20 9/19/19 12/29/23
f 16/30/26 17/31/27 13/32/28
f 16/30/26 21/33/29 18/34/30
f 19/35/31 20/36/32 14/15/15
f 23/37/33 21/38/29 19/35/31
f 22/39/34 23/40/33 15/41/35
f 17/42/27 24/43/36 22/39/34
f 18/34/30 21/33/29 24/44/36
f 28/45/37 29/46/38 25/14/14
f 28/45/37 33/47/39 30/48/40
f 31/49/41 32/50/42 26/9/9
f 31/49/41 36/51/43 33/52/39
f 34/53/44 35/54/45 27/5/5
f 34/53/44 30/55/40 36/56/43
f 30/48/40 33/47/39 36/57/43
f 40/58/46 41/59/47 37/60/48
f 40/58/46 45/61/49 42/62/50
f 43/63/51 44/64/52 38/6/6
f 43/63/51 48/65/53 45/66/49
f 46/67/54 47/68/55 39/8/8
f 46/67/54 42/69/50 48/70/53
f 42/62/50 45/61/49 48/71/53
f 52/72/56 53/73/57 49/3/3
f 56/74/58 54/75/59 52/72/56
f 55/76/60 56/77/58 50/12/12
f 55/76/60 60/78/61 57/79/62
f 58/80/63 59/81/64 51/82/65
f 58/80/63 54/83/59 60/84/61
f 54/75/59 57/85/62 60/86/61
f 64/87/66 65/88/67 61/13/13
f 64/87/66 69/89/68 66/90/69
f 67/91/70 68/92/71 62/93/72
f 71/94/73 69/95/68 67/91/70
f 70/96/74 71/97/73 63/11/11
f 65/98/67 72/99/75 70/96/74
f 66/90/69 69/89/68 72/100/75
f 76/101/76 77/102/77 73/7/7
f 76/101/76 81/103/78 78/104/79
f 79/105/80 80/106/81 74/107/82
f 83/108/83 81/109/78 79/105/80
f 82/110/84 83/111/83 75/112/85
f 82/110/84 78/113/79 84/114/86
f 78/104/79 81/103/78 84/115/86
f 88/116/87 89/117/88 85/118/89
f 92/119/90 90/120/91 88/116/87
f 91/121/92 92/122/90 86/10/10
f 91/121/92 96/123/93 93/124/94
f 94/125/95 95/126/96 87/2/2
f 94/125/95 90/127/91 96/128/93
f 90/120/91 93/129/94 96/130/93
f 13/32/28 4/16/16 1/18/18
f 17/31/27 8/131/22 4/16/16
f 22/39/34 2/4/4 8/22/22
f 38/6/6 7/21/21 2/4/4
f 44/64/52 11/132/25 7/21/21
f 40/58/46 3/1/1 11/26/25
f 49/3/3 10/25/24 3/1/1
f 53/73/57 5/133/17 10/25/24
f 58/80/63 1/18/18 5/17/17
f 25/14/14 19/35/31 14/15/15
f 29/46/38 23/37/33 19/35/31
f 34/53/44 15/41/35 23/40/33
f 62/93/72 16/30/26 13/32/28
f 68/92/71 20/134/32 16/30/26
f 64/87/66 14/15/15 20/36/32
f 39/8/8 31/49/41 26/9/9
f 47/68/55 35/135/45 31/49/41
f 43/63/51 27/5/5 35/54/45
f 74/107/82 28/45/37 25/14/14
f 80/106/81 32/136/42 28/45/37
f 76/101/76 26/9/9 32/50/42
f 85/118/89 46/67/54 39/8/8
f 89/117/88 41/137/47 46/67/54
f 94/125/95 37/60/48 41/59/47
f 63/11/11 55/76/60 50/12/12
f 71/97/73 59/138/64 55/76/60
f 67/91/70 51/82/65 59/81/64
f 87/2/2 52/72/56 49/3/3
f 95/126/96 56/74/58 52/72/56
f 91/121/92 50/12/12 56/77/58
f 75/112/85 70/96/74 63/11/11
f 83/111/83 65/98/67 70/96/74
f 65/88/67 74/107/82 61/13/13
f 86/10/10 82/110/84 75/112/85
f 92/122/90 77/139/77 82/110/84
f 88/116/87 73/7/7 77/102/77
f 51/82/65 13/32/28 1/18/18
f 3/1/1 37/60/48 87/2/2
f 2/4/4 15/41/35 27/5/5
f 73/7/7 85/118/89 39/8/8
f 86/10/10 75/112/85 63/11/11
f 61/13/13 74/107/82 25/14/14
f 4/16/16 6/20/20 5/17/17
f 4/16/16 8/131/22 9/19/19
f 7/21/21 9/24/19 8/22/22
f 7/21/21 11/132/25 12/23/23
f 10/25/24 12/28/23 11/26/25
f 10/25/24 5/133/17 6/27/20
f 16/30/26 18/34/30 17/31/27
f 16/30/26 20/134/32 21/33/29
f 19/35/31 21/38/29 20/36/32
f 23/37/33 24/140/36 21/38/29
f 22/39/34 24/43/36 23/40/33
f 17/42/27 18/141/30 24/43/36
f 28/45/37 30/48/40 29/46/38
f 28/45/37 32/136/42 33/47/39
f 31/49/41 33/52/39 32/50/42
f 31/49/41 35/135/45 36/51/43
f 34/53/44 36/56/43 35/54/45
f 34/53/44 29/142/38 30/55/40
f 40/58/46 42/62/50 41/59/47
f 40/58/46 44/143/52 45/61/49
f 43/63/51 45/66/49 44/64/52
f 43/63/51 47/144/55 48/65/53
f 46/67/54 48/70/53 47/68/55
f 46/67/54 41/137/47 42/69/50
f 52/72/56 54/75/59 53/73/57
f 56/74/58 57/85/62 54/75/59
f 55/76/60 57/79/62 56/77/58
f 55/76/60 59/138/64 60/78/61
f 58/80/63 60/84/61 59/81/64
f 58/80/63 53/145/57 54/83/59
f 64/87/66 66/90/69 65/88/67
f 64/87/66 68/146/71 69/89/68
f 67/91/70 69/95/68 68/92/71
f 71/94/73 72/147/75 69/95/68
f 70/96/74 72/99/75 71/97/73
f 65/98/67 66/148/69 72/99/75
f 76/101/76 78/104/79 77/102/77
f 76/101/76 80/149/81 81/103/78
f 79/105/80 81/109/78 80/106/81
f 83/108/83 84/150/86 81/109/78
f 82/110/84 84/114/86 83/111/83
f 82/110/84 77/139/77 78/113/79
f 88/116/87 90/120/91 89/117/88
f 92/119/90 93/129/94 90/120/91
f 91/121/92 93/124/94 92/122/90
f 91/121/92 95/151/96 96/123/93
f 94/125/95 96/128/93 95/126/96
f 94/125/95 89/152/88 90/127/91
f 13/32/28 17/31/27 4/16/16
f 17/31/27 22/153/34 8/131/22
f 22/39/34 15/41/35 2/4/4
f 38/6/6 44/64/52 7/21/21
f 44/64/52 40/154/46 11/132/25
f 40/58/46 37/60/48 3/1/1
f 49/3/3 53/73/57 10/25/24
f 53/73/57 58/155/63 5/133/17
f 58/80/63 51/82/65 1/18/18
f 25/14/14 29/46/38 19/35/31
f 29/46/38 34/156/44 23/37/33
f 34/53/44 27/5/5 15/41/35
f 62/93/72 68/92/71 16/30/26
f 68/92/71 64/157/66 20/134/32
f 64/87/66 61/13/13 14/15/15
f 39/8/8 47/68/55 31/49/41
f 47/68/55 43/158/51 35/135/45
f 43/63/51 38/6/6 27/5/5
f 74/107/82 80/106/81 28/45/37
f 80/106/81 76/159/76 32/136/42
f 76/101/76 73/7/7 26/9/9
f 85/118/89 89/117/88 46/67/54
f 89/117/88 94/160/95 41/137/47
f 94/125/95 87/2/2 37/60/48
f 63/11/11 71/97/73 55/76/60
f 71/97/73 67/161/70 59/138/64
f 67/91/70 62/93/72 51/82/65
f 87/2/2 95/126/96 52/72/56
f 95/126/96 91/162/92 56/74/58
f 91/121/92 86/10/10 50/12/12
f 75/112/85 83/111/83 70/96/74
f 83/111/83 79/163/80 65/98/67
f 65/88/67 79/105/80 74/107/82
f 86/10/10 92/122/90 82/110/84
f 92/122/90 88/164/87 77/139/77
f 88/116/87 85/118/89 73/7/7
f 51/82/65 62/93/72 13/32/28
